<mxfile host="app.diagrams.net" modified="2024-06-12T16:50:27.125Z" agent="Mozilla/5.0 (X11; Linux x86_64; rv:109.0) Gecko/20100101 Firefox/115.0" etag="0fo9DLMt4TMM4QItlGVe" version="24.2.8" type="device" pages="2">
  <diagram name="Page-1" id="c1p8hZTw2Ofo0TcBuHM4">
    <mxGraphModel dx="1422" dy="795" grid="1" gridSize="10" guides="1" tooltips="1" connect="1" arrows="1" fold="1" page="1" pageScale="1" pageWidth="850" pageHeight="1100" math="0" shadow="0">
      <root>
        <mxCell id="0" />
        <mxCell id="1" parent="0" />
        <mxCell id="Ghb6OxDviz4KhSSvoagT-2" value="Метод программной реализации доверенной среды исполнения с помощью виртуализации процессоров архитектуры ARM " style="rounded=0;whiteSpace=wrap;html=1;" parent="1" vertex="1">
          <mxGeometry x="360" y="190" width="250" height="60" as="geometry" />
        </mxCell>
        <mxCell id="Ghb6OxDviz4KhSSvoagT-3" value="" style="endArrow=classic;html=1;rounded=0;entryX=0;entryY=0.5;entryDx=0;entryDy=0;" parent="1" target="Ghb6OxDviz4KhSSvoagT-2" edge="1">
          <mxGeometry width="50" height="50" relative="1" as="geometry">
            <mxPoint x="170" y="220" as="sourcePoint" />
            <mxPoint x="450" y="200" as="targetPoint" />
          </mxGeometry>
        </mxCell>
        <mxCell id="Ghb6OxDviz4KhSSvoagT-4" value="" style="endArrow=classic;html=1;rounded=0;exitX=1;exitY=0.5;exitDx=0;exitDy=0;" parent="1" source="Ghb6OxDviz4KhSSvoagT-2" edge="1">
          <mxGeometry width="50" height="50" relative="1" as="geometry">
            <mxPoint x="400" y="250" as="sourcePoint" />
            <mxPoint x="830" y="220" as="targetPoint" />
          </mxGeometry>
        </mxCell>
        <mxCell id="Ghb6OxDviz4KhSSvoagT-5" value="Бинарные образы доверенной и обычной ОС" style="text;html=1;align=center;verticalAlign=middle;whiteSpace=wrap;rounded=0;" parent="1" vertex="1">
          <mxGeometry x="180" y="188" width="170" height="30" as="geometry" />
        </mxCell>
        <mxCell id="Ghb6OxDviz4KhSSvoagT-11" value="" style="endArrow=classic;html=1;rounded=0;entryX=0.25;entryY=1;entryDx=0;entryDy=0;exitX=0.924;exitY=-0.09;exitDx=0;exitDy=0;exitPerimeter=0;" parent="1" source="Ghb6OxDviz4KhSSvoagT-13" target="Ghb6OxDviz4KhSSvoagT-2" edge="1">
          <mxGeometry width="50" height="50" relative="1" as="geometry">
            <mxPoint x="423" y="330" as="sourcePoint" />
            <mxPoint x="500" y="240" as="targetPoint" />
          </mxGeometry>
        </mxCell>
        <mxCell id="Ghb6OxDviz4KhSSvoagT-12" value="" style="endArrow=classic;html=1;rounded=0;entryX=0.25;entryY=1;entryDx=0;entryDy=0;exitX=0.11;exitY=-0.033;exitDx=0;exitDy=0;exitPerimeter=0;" parent="1" source="Ghb6OxDviz4KhSSvoagT-14" edge="1">
          <mxGeometry width="50" height="50" relative="1" as="geometry">
            <mxPoint x="540" y="330" as="sourcePoint" />
            <mxPoint x="540" y="250" as="targetPoint" />
          </mxGeometry>
        </mxCell>
        <mxCell id="Ghb6OxDviz4KhSSvoagT-13" value="ARM TrustZone" style="text;html=1;align=center;verticalAlign=middle;whiteSpace=wrap;rounded=0;" parent="1" vertex="1">
          <mxGeometry x="330" y="340" width="100" height="30" as="geometry" />
        </mxCell>
        <mxCell id="Ghb6OxDviz4KhSSvoagT-14" value="Гипервизор" style="text;html=1;align=center;verticalAlign=middle;whiteSpace=wrap;rounded=0;" parent="1" vertex="1">
          <mxGeometry x="527.5" y="340" width="125" height="30" as="geometry" />
        </mxCell>
        <mxCell id="Ghb6OxDviz4KhSSvoagT-15" value="Виртуализированная доверенная среда исполнения" style="text;html=1;align=center;verticalAlign=middle;whiteSpace=wrap;rounded=0;" parent="1" vertex="1">
          <mxGeometry x="620" y="188" width="200" height="30" as="geometry" />
        </mxCell>
        <mxCell id="Ghb6OxDviz4KhSSvoagT-16" value="A0" style="text;html=1;align=center;verticalAlign=middle;whiteSpace=wrap;rounded=0;" parent="1" vertex="1">
          <mxGeometry x="570" y="230" width="60" height="30" as="geometry" />
        </mxCell>
      </root>
    </mxGraphModel>
  </diagram>
  <diagram id="pr-Hu5LouBRZ8e_066SA" name="Page-2">
    <mxGraphModel dx="2370" dy="1325" grid="1" gridSize="10" guides="1" tooltips="1" connect="1" arrows="1" fold="1" page="1" pageScale="1" pageWidth="850" pageHeight="1100" math="0" shadow="0">
      <root>
        <mxCell id="0" />
        <mxCell id="1" parent="0" />
        <mxCell id="HfR3_PFLRZc3uOgkUprW-2" value="&lt;font style=&quot;font-size: 18px;&quot;&gt;Виртуализация доверенной загрузки&lt;/font&gt;" style="rounded=0;whiteSpace=wrap;html=1;" parent="1" vertex="1">
          <mxGeometry x="360" y="190" width="250" height="60" as="geometry" />
        </mxCell>
        <mxCell id="HfR3_PFLRZc3uOgkUprW-3" value="" style="endArrow=classic;html=1;rounded=0;entryX=0;entryY=0.5;entryDx=0;entryDy=0;" parent="1" target="HfR3_PFLRZc3uOgkUprW-2" edge="1">
          <mxGeometry width="50" height="50" relative="1" as="geometry">
            <mxPoint x="120" y="220" as="sourcePoint" />
            <mxPoint x="450" y="200" as="targetPoint" />
          </mxGeometry>
        </mxCell>
        <mxCell id="HfR3_PFLRZc3uOgkUprW-4" value="" style="endArrow=classic;html=1;rounded=0;exitX=1;exitY=0.5;exitDx=0;exitDy=0;" parent="1" source="HfR3_PFLRZc3uOgkUprW-2" edge="1">
          <mxGeometry width="50" height="50" relative="1" as="geometry">
            <mxPoint x="400" y="250" as="sourcePoint" />
            <mxPoint x="1740" y="220" as="targetPoint" />
          </mxGeometry>
        </mxCell>
        <mxCell id="HfR3_PFLRZc3uOgkUprW-5" value="&lt;font style=&quot;font-size: 16px;&quot;&gt;Бинарные образы доверенной и обычной ОС&lt;/font&gt;" style="text;html=1;align=center;verticalAlign=middle;whiteSpace=wrap;rounded=0;" parent="1" vertex="1">
          <mxGeometry x="120" y="180" width="230" height="30" as="geometry" />
        </mxCell>
        <mxCell id="HfR3_PFLRZc3uOgkUprW-13" value="&lt;font style=&quot;font-size: 16px;&quot;&gt;ARM TrustZone&lt;/font&gt;" style="text;html=1;align=center;verticalAlign=middle;whiteSpace=wrap;rounded=0;" parent="1" vertex="1">
          <mxGeometry x="570" y="810" width="100" height="30" as="geometry" />
        </mxCell>
        <mxCell id="HfR3_PFLRZc3uOgkUprW-14" value="&lt;font style=&quot;font-size: 16px;&quot;&gt;Гипервизор&lt;/font&gt;" style="text;html=1;align=center;verticalAlign=middle;whiteSpace=wrap;rounded=0;" parent="1" vertex="1">
          <mxGeometry x="420" y="860" width="125" height="30" as="geometry" />
        </mxCell>
        <mxCell id="HfR3_PFLRZc3uOgkUprW-15" value="&lt;font style=&quot;font-size: 16px;&quot;&gt;Доверенная и обычная ОС в стадии исполнения&lt;/font&gt;" style="text;html=1;align=center;verticalAlign=middle;whiteSpace=wrap;rounded=0;" parent="1" vertex="1">
          <mxGeometry x="620" y="180" width="230" height="30" as="geometry" />
        </mxCell>
        <mxCell id="HfR3_PFLRZc3uOgkUprW-16" value="A1" style="text;html=1;align=center;verticalAlign=middle;whiteSpace=wrap;rounded=0;" parent="1" vertex="1">
          <mxGeometry x="570" y="230" width="60" height="30" as="geometry" />
        </mxCell>
        <mxCell id="HfR3_PFLRZc3uOgkUprW-17" value="&lt;font style=&quot;font-size: 18px;&quot;&gt;Виртуализация переключения контекста&lt;/font&gt;" style="rounded=0;whiteSpace=wrap;html=1;" parent="1" vertex="1">
          <mxGeometry x="800" y="450" width="250" height="60" as="geometry" />
        </mxCell>
        <mxCell id="HfR3_PFLRZc3uOgkUprW-18" value="" style="endArrow=classic;html=1;rounded=0;entryX=0;entryY=0.5;entryDx=0;entryDy=0;" parent="1" target="HfR3_PFLRZc3uOgkUprW-17" edge="1">
          <mxGeometry width="50" height="50" relative="1" as="geometry">
            <mxPoint x="120" y="480" as="sourcePoint" />
            <mxPoint x="1140" y="580" as="targetPoint" />
          </mxGeometry>
        </mxCell>
        <mxCell id="HfR3_PFLRZc3uOgkUprW-19" value="&lt;font style=&quot;font-size: 16px;&quot;&gt;Контекст выполнения гостевой ВМ&lt;/font&gt;" style="text;html=1;align=center;verticalAlign=middle;whiteSpace=wrap;rounded=0;" parent="1" vertex="1">
          <mxGeometry x="590" y="440" width="200" height="30" as="geometry" />
        </mxCell>
        <mxCell id="HfR3_PFLRZc3uOgkUprW-22" value="" style="endArrow=classic;html=1;rounded=0;exitX=1;exitY=0.5;exitDx=0;exitDy=0;" parent="1" source="HfR3_PFLRZc3uOgkUprW-17" edge="1">
          <mxGeometry width="50" height="50" relative="1" as="geometry">
            <mxPoint x="900" y="510" as="sourcePoint" />
            <mxPoint x="1740" y="480" as="targetPoint" />
          </mxGeometry>
        </mxCell>
        <mxCell id="HfR3_PFLRZc3uOgkUprW-23" value="&lt;font style=&quot;font-size: 16px;&quot;&gt;Контекст выполнения доверенной ВМ&lt;/font&gt;" style="text;html=1;align=center;verticalAlign=middle;whiteSpace=wrap;rounded=0;" parent="1" vertex="1">
          <mxGeometry x="1060" y="440" width="190" height="30" as="geometry" />
        </mxCell>
        <mxCell id="HfR3_PFLRZc3uOgkUprW-26" value="A2" style="text;html=1;align=center;verticalAlign=middle;whiteSpace=wrap;rounded=0;" parent="1" vertex="1">
          <mxGeometry x="1010" y="490" width="60" height="30" as="geometry" />
        </mxCell>
        <mxCell id="HfR3_PFLRZc3uOgkUprW-32" value="&lt;font style=&quot;font-size: 17px;&quot;&gt;Виртуализация контроллеров разделения аппаратных ресурсов &lt;/font&gt;" style="rounded=0;whiteSpace=wrap;html=1;" parent="1" vertex="1">
          <mxGeometry x="1250" y="730" width="250" height="70" as="geometry" />
        </mxCell>
        <mxCell id="HfR3_PFLRZc3uOgkUprW-33" value="" style="endArrow=classic;html=1;rounded=0;entryX=0;entryY=0.5;entryDx=0;entryDy=0;" parent="1" target="HfR3_PFLRZc3uOgkUprW-32" edge="1">
          <mxGeometry width="50" height="50" relative="1" as="geometry">
            <mxPoint x="120" y="765" as="sourcePoint" />
            <mxPoint x="1380" y="750" as="targetPoint" />
          </mxGeometry>
        </mxCell>
        <mxCell id="HfR3_PFLRZc3uOgkUprW-34" value="" style="endArrow=classic;html=1;rounded=0;exitX=1;exitY=0.5;exitDx=0;exitDy=0;" parent="1" source="HfR3_PFLRZc3uOgkUprW-32" edge="1">
          <mxGeometry width="50" height="50" relative="1" as="geometry">
            <mxPoint x="1330" y="800" as="sourcePoint" />
            <mxPoint x="1740" y="765" as="targetPoint" />
          </mxGeometry>
        </mxCell>
        <mxCell id="HfR3_PFLRZc3uOgkUprW-35" value="&lt;font style=&quot;font-size: 16px;&quot;&gt;Запрос на запись в память контроллера&lt;/font&gt;" style="text;html=1;align=center;verticalAlign=middle;whiteSpace=wrap;rounded=0;" parent="1" vertex="1">
          <mxGeometry x="1070" y="730" width="170" height="30" as="geometry" />
        </mxCell>
        <mxCell id="HfR3_PFLRZc3uOgkUprW-37" value="&lt;font style=&quot;font-size: 17px;&quot;&gt;Обработанный запрос&lt;/font&gt;" style="text;html=1;align=center;verticalAlign=middle;whiteSpace=wrap;rounded=0;" parent="1" vertex="1">
          <mxGeometry x="1500" y="730" width="210" height="30" as="geometry" />
        </mxCell>
        <mxCell id="HfR3_PFLRZc3uOgkUprW-38" value="A3" style="text;html=1;align=center;verticalAlign=middle;whiteSpace=wrap;rounded=0;" parent="1" vertex="1">
          <mxGeometry x="1460" y="780" width="60" height="30" as="geometry" />
        </mxCell>
        <mxCell id="Xzh-jAN7zzmvqJVwuTOu-2" value="" style="endArrow=none;html=1;rounded=0;" edge="1" parent="1">
          <mxGeometry width="50" height="50" relative="1" as="geometry">
            <mxPoint x="420" y="890" as="sourcePoint" />
            <mxPoint x="1438" y="890" as="targetPoint" />
          </mxGeometry>
        </mxCell>
        <mxCell id="Xzh-jAN7zzmvqJVwuTOu-3" value="" style="endArrow=classic;html=1;rounded=0;entryX=0.75;entryY=1;entryDx=0;entryDy=0;" edge="1" parent="1" target="HfR3_PFLRZc3uOgkUprW-32">
          <mxGeometry width="50" height="50" relative="1" as="geometry">
            <mxPoint x="1438" y="890" as="sourcePoint" />
            <mxPoint x="1500" y="650" as="targetPoint" />
          </mxGeometry>
        </mxCell>
        <mxCell id="Xzh-jAN7zzmvqJVwuTOu-4" value="" style="endArrow=classic;html=1;rounded=0;entryX=0.25;entryY=1;entryDx=0;entryDy=0;" edge="1" parent="1" target="HfR3_PFLRZc3uOgkUprW-32">
          <mxGeometry width="50" height="50" relative="1" as="geometry">
            <mxPoint x="1313" y="850" as="sourcePoint" />
            <mxPoint x="1490" y="740" as="targetPoint" />
          </mxGeometry>
        </mxCell>
        <mxCell id="Xzh-jAN7zzmvqJVwuTOu-8" value="" style="endArrow=classic;html=1;rounded=0;entryX=0.25;entryY=1;entryDx=0;entryDy=0;" edge="1" parent="1" target="HfR3_PFLRZc3uOgkUprW-2">
          <mxGeometry width="50" height="50" relative="1" as="geometry">
            <mxPoint x="420" y="890" as="sourcePoint" />
            <mxPoint x="910" y="550" as="targetPoint" />
          </mxGeometry>
        </mxCell>
        <mxCell id="Xzh-jAN7zzmvqJVwuTOu-9" value="" style="endArrow=classic;html=1;rounded=0;entryX=0.75;entryY=1;entryDx=0;entryDy=0;" edge="1" parent="1" target="HfR3_PFLRZc3uOgkUprW-2">
          <mxGeometry width="50" height="50" relative="1" as="geometry">
            <mxPoint x="548" y="850" as="sourcePoint" />
            <mxPoint x="910" y="550" as="targetPoint" />
          </mxGeometry>
        </mxCell>
        <mxCell id="Xzh-jAN7zzmvqJVwuTOu-11" value="" style="endArrow=none;html=1;rounded=0;" edge="1" parent="1">
          <mxGeometry width="50" height="50" relative="1" as="geometry">
            <mxPoint x="550" y="849" as="sourcePoint" />
            <mxPoint x="1313" y="850" as="targetPoint" />
          </mxGeometry>
        </mxCell>
        <mxCell id="Xzh-jAN7zzmvqJVwuTOu-12" value="" style="endArrow=classic;html=1;rounded=0;entryX=0.25;entryY=1;entryDx=0;entryDy=0;" edge="1" parent="1" target="HfR3_PFLRZc3uOgkUprW-17">
          <mxGeometry width="50" height="50" relative="1" as="geometry">
            <mxPoint x="863" y="850" as="sourcePoint" />
            <mxPoint x="950" y="570" as="targetPoint" />
          </mxGeometry>
        </mxCell>
        <mxCell id="Xzh-jAN7zzmvqJVwuTOu-13" value="" style="endArrow=classic;html=1;rounded=0;entryX=0.75;entryY=1;entryDx=0;entryDy=0;" edge="1" parent="1" target="HfR3_PFLRZc3uOgkUprW-17">
          <mxGeometry width="50" height="50" relative="1" as="geometry">
            <mxPoint x="990" y="890" as="sourcePoint" />
            <mxPoint x="610" y="570" as="targetPoint" />
          </mxGeometry>
        </mxCell>
      </root>
    </mxGraphModel>
  </diagram>
</mxfile>
